<svg xmlns="http://www.w3.org/2000/svg" width="372" height="92" viewBox="0 0 372 92" fill="none"><path d="M148.644 24.0257C148.394 25.6707 148.411 27.2264 148.697 28.6926C149.019 30.1231 149.592 31.3927 150.414 32.5013C151.272 33.6099 152.327 34.504 153.579 35.1834C154.866 35.8272 156.351 36.149 158.031 36.149C160.535 36.1848 162.788 35.702 164.79 34.7007C166.829 33.6636 168.635 32.4655 170.208 31.1066L168.921 39.6895C167.204 40.8696 165.381 41.8173 163.449 42.5326C161.554 43.212 159.355 43.5518 156.851 43.5518C154.062 43.5518 151.558 43.0511 149.341 42.0498C147.124 41.0127 145.282 39.6001 143.816 37.812C142.385 35.9881 141.366 33.896 140.758 31.5357C140.15 29.1754 140.043 26.6721 140.436 24.0257C140.866 21.272 141.742 18.715 143.065 16.3547C144.388 13.9586 146.051 11.8844 148.054 10.1321C150.092 8.34397 152.381 6.96713 154.92 6.00155C157.459 5.00021 160.177 4.49954 163.074 4.49954C165.47 4.46378 167.526 4.78564 169.243 5.46512C170.995 6.1446 172.622 7.11018 174.124 8.36186L172.783 16.9984C171.639 15.4606 170.244 14.2268 168.599 13.297C166.954 12.3315 164.951 11.8487 162.591 11.8487C160.91 11.8487 159.301 12.1526 157.763 12.7606C156.225 13.3686 154.813 14.2268 153.525 15.3355C152.274 16.4441 151.219 17.7315 150.36 19.1978C149.502 20.664 148.93 22.2733 148.644 24.0257ZM173.041 30.4628C173.399 27.9595 174.293 25.7422 175.723 23.8111C177.154 21.8799 178.942 20.36 181.088 19.2514C183.269 18.1428 185.629 17.5885 188.168 17.5885C190.708 17.5885 192.889 18.1607 194.713 19.3051C196.573 20.4495 197.949 22.0051 198.843 23.972C199.773 25.9032 200.077 28.0668 199.755 30.4628C199.433 32.9304 198.557 35.1298 197.127 37.061C195.696 38.9921 193.89 40.512 191.709 41.6206C189.563 42.7293 187.203 43.2836 184.628 43.2836C182.125 43.2836 179.943 42.7293 178.083 41.6206C176.26 40.4762 174.883 38.9385 173.953 37.0073C173.059 35.0404 172.755 32.8589 173.041 30.4628ZM180.015 30.4628C179.836 31.643 179.925 32.7695 180.283 33.8424C180.64 34.9152 181.231 35.7735 182.053 36.4172C182.876 37.061 183.895 37.4007 185.111 37.4365C186.398 37.4365 187.578 37.1325 188.651 36.5245C189.76 35.8808 190.672 35.0225 191.387 33.9497C192.138 32.8768 192.603 31.7145 192.782 30.4628C192.961 29.2112 192.871 28.0668 192.514 27.0297C192.156 25.9926 191.566 25.1343 190.743 24.4548C189.921 23.7753 188.884 23.4356 187.632 23.4356C186.416 23.3998 185.254 23.7038 184.145 24.3475C183.037 24.9912 182.125 25.8495 181.409 26.9224C180.694 27.9953 180.229 29.1754 180.015 30.4628ZM226.877 0.959096H233.797L226.555 42.8008H219.796L226.877 0.959096ZM202.147 30.4628C202.469 27.9953 203.274 25.7959 204.561 23.8647C205.885 21.9336 207.512 20.3958 209.443 19.2514C211.41 18.107 213.502 17.5527 215.719 17.5885C217.4 17.5885 218.813 17.9461 219.957 18.6613C221.101 19.3766 222.013 20.3422 222.693 21.5581C223.372 22.7382 223.819 24.0972 224.034 25.635C224.248 27.1727 224.248 28.782 224.034 30.4628C223.819 32.2152 223.354 33.8781 222.639 35.4517C221.96 36.9894 221.084 38.3484 220.011 39.5285C218.974 40.7087 217.758 41.6385 216.363 42.318C214.968 42.9617 213.448 43.2836 211.803 43.2836C209.55 43.2836 207.655 42.7114 206.117 41.567C204.579 40.3868 203.453 38.8312 202.738 36.9C202.022 34.9331 201.826 32.7874 202.147 30.4628ZM209.228 30.4628C209.05 31.6788 209.121 32.841 209.443 33.9497C209.801 35.0225 210.391 35.8808 211.213 36.5245C212.036 37.1682 213.073 37.508 214.324 37.5437C215.183 37.5437 216.023 37.3649 216.846 37.0073C217.668 36.6497 218.419 36.149 219.099 35.5053C219.814 34.8258 220.404 34.0569 220.869 33.1987C221.37 32.3404 221.709 31.4284 221.888 30.4628C222.031 29.4973 222.013 28.6032 221.835 27.7807C221.691 26.9582 221.405 26.225 220.976 25.5813C220.547 24.9018 220.011 24.3654 219.367 23.972C218.723 23.5786 217.972 23.3641 217.114 23.3283C215.862 23.2925 214.664 23.5965 213.52 24.2402C212.411 24.884 211.464 25.7601 210.677 26.8688C209.926 27.9416 209.443 29.1396 209.228 30.4628ZM235.781 8.57643C235.781 7.43204 236.192 6.50222 237.015 5.78698C237.837 5.03598 238.803 4.66048 239.911 4.66048C241.092 4.66048 242.075 5.03598 242.862 5.78698C243.684 6.50222 244.096 7.43204 244.096 8.57643C244.096 9.68505 243.684 10.6149 242.862 11.3659C242.075 12.1169 241.092 12.4924 239.911 12.4924C238.803 12.4924 237.837 12.1169 237.015 11.3659C236.192 10.6149 235.781 9.68505 235.781 8.57643ZM234.923 18.1249H241.682L237.444 42.8008H230.792L234.923 18.1249ZM259.85 27.7807C259.958 26.8866 259.94 26.0641 259.797 25.3131C259.689 24.5621 259.403 23.9541 258.938 23.4892C258.474 22.9886 257.74 22.7382 256.739 22.7382C255.809 22.7382 254.933 22.9528 254.111 23.3819C253.324 23.7753 252.68 24.3475 252.179 25.0985C251.679 25.8138 251.357 26.6542 251.214 27.6198L248.585 42.8008H241.719L245.957 18.1249H252.823L252.287 21.6654C253.145 20.3779 254.2 19.3766 255.452 18.6613C256.703 17.9461 258.17 17.5885 259.85 17.5885C261.817 17.5527 263.355 17.964 264.464 18.8223C265.572 19.6806 266.323 20.825 266.717 22.2554C267.146 23.6502 267.235 25.2416 266.985 27.0297L264.249 42.8008H257.222L259.85 27.7807ZM268.654 18.1249H275.735L278.631 31.643L288.073 16.1401L292.364 31.7503L300.035 18.1249H307.438L291.077 44.571L286.141 28.9072L275.896 44.571L268.654 18.1249ZM325.884 18.1249H332.643L328.405 42.8008H321.7L325.884 18.1249ZM303.944 30.4628C304.266 27.9953 305.07 25.7959 306.358 23.8647C307.681 21.9336 309.308 20.3958 311.239 19.2514C313.206 18.107 315.298 17.5527 317.516 17.5885C319.196 17.5885 320.609 17.9461 321.753 18.6613C322.898 19.3766 323.81 20.3422 324.489 21.5581C325.169 22.7382 325.616 24.0972 325.83 25.635C326.045 27.1727 326.045 28.782 325.83 30.4628C325.616 32.2152 325.151 33.8781 324.436 35.4517C323.756 36.9894 322.88 38.3484 321.807 39.5285C320.77 40.7087 319.554 41.6385 318.159 42.318C316.765 42.9617 315.245 43.2836 313.6 43.2836C311.347 43.2836 309.451 42.7114 307.913 41.567C306.376 40.3868 305.249 38.8312 304.534 36.9C303.819 34.9331 303.622 32.7874 303.944 30.4628ZM311.025 30.4628C310.846 31.6788 310.917 32.841 311.239 33.9497C311.597 35.0225 312.187 35.8808 313.01 36.5245C313.832 37.1682 314.869 37.508 316.121 37.5437C316.979 37.5437 317.82 37.3649 318.642 37.0073C319.465 36.6497 320.216 36.149 320.895 35.5053C321.61 34.8258 322.2 34.0569 322.665 33.1987C323.166 32.3404 323.506 31.4284 323.684 30.4628C323.828 29.4973 323.81 28.6032 323.631 27.7807C323.488 26.9582 323.202 26.225 322.773 25.5813C322.343 24.9018 321.807 24.3654 321.163 23.972C320.52 23.5786 319.769 23.3641 318.91 23.3283C317.659 23.2925 316.461 23.5965 315.316 24.2402C314.208 24.884 313.26 25.7601 312.473 26.8688C311.722 27.9416 311.239 29.1396 311.025 30.4628ZM339.24 0.959096H346.16L338.918 42.8008H332.159L339.24 0.959096ZM349.808 0.959096H356.513L349.325 42.8008H342.727L349.808 0.959096ZM362.092 18.1249H370.568L358.176 28.5853L367.081 42.8008H359.249L350.237 28.1025L362.092 18.1249Z" fill="black"></path><path d="M146.871 77.2919C146.252 77.2919 145.709 77.2097 145.242 77.0454C144.775 76.8853 144.39 76.6561 144.088 76.3577C143.789 76.0593 143.584 75.7047 143.471 75.2938L144.185 74.924C144.28 75.2441 144.44 75.5273 144.665 75.7739C144.89 76.0204 145.188 76.2128 145.56 76.3512C145.936 76.4939 146.393 76.5653 146.929 76.5653C147.889 76.5653 148.698 76.3166 149.355 75.8193C150.013 75.3262 150.426 74.5694 150.594 73.5488L150.996 71.0707H150.919C150.698 71.5031 150.41 71.888 150.056 72.2254C149.705 72.5584 149.301 72.82 148.843 73.0103C148.384 73.2006 147.883 73.2958 147.338 73.2958C146.546 73.2958 145.887 73.0925 145.359 72.686C144.831 72.2794 144.462 71.7086 144.25 70.9733C144.042 70.2338 144.021 69.3645 144.185 68.3655C144.354 67.3665 144.665 66.4821 145.119 65.7122C145.573 64.9381 146.133 64.3326 146.799 63.8958C147.47 63.4547 148.207 63.2341 149.011 63.2341C149.587 63.2341 150.067 63.3444 150.452 63.565C150.836 63.7812 151.141 64.0688 151.366 64.4278C151.591 64.7867 151.749 65.1803 151.84 65.6084H151.931L152.294 63.3833H153.059L151.373 73.5812C151.234 74.4159 150.958 75.1057 150.542 75.6506C150.127 76.1999 149.604 76.6107 148.972 76.8832C148.345 77.1556 147.645 77.2919 146.871 77.2919ZM147.467 72.5627C148.129 72.5627 148.735 72.394 149.284 72.0567C149.837 71.715 150.302 71.2307 150.679 70.6036C151.055 69.9722 151.316 69.224 151.464 68.359C151.602 67.52 151.598 66.7697 151.451 66.108C151.303 65.4463 151.02 64.9251 150.601 64.5445C150.186 64.164 149.638 63.9737 148.959 63.9737C148.276 63.9737 147.658 64.1683 147.104 64.5575C146.555 64.9424 146.096 65.4657 145.729 66.1274C145.361 66.7891 145.11 67.533 144.976 68.359C144.838 69.1894 144.84 69.9203 144.983 70.5517C145.126 71.1788 145.404 71.6718 145.82 72.0308C146.235 72.3854 146.784 72.5627 147.467 72.5627ZM154.728 73.3477L156.389 63.3833H157.161L156.901 64.9403H156.973C157.267 64.4299 157.699 64.0212 158.27 63.7142C158.841 63.4028 159.455 63.2471 160.113 63.2471C160.186 63.2471 160.255 63.2471 160.32 63.2471C160.385 63.2471 160.45 63.2493 160.515 63.2536L160.379 64.0515C160.327 64.0472 160.264 64.0407 160.19 64.0321C160.121 64.0191 160.035 64.0126 159.931 64.0126C159.377 64.0126 158.865 64.1315 158.393 64.3694C157.922 64.6073 157.528 64.9359 157.213 65.3554C156.897 65.7706 156.696 66.2464 156.609 66.7826L155.52 73.3477H154.728ZM164.375 73.5552C163.544 73.5552 162.841 73.3325 162.266 72.8871C161.695 72.4373 161.289 71.8188 161.047 71.0317C160.805 70.2446 160.768 69.3451 160.936 68.3331C161.101 67.347 161.425 66.4712 161.91 65.7058C162.398 64.9359 162.995 64.3326 163.7 63.8958C164.405 63.4547 165.162 63.2341 165.97 63.2341C166.805 63.2341 167.508 63.4612 168.079 63.9153C168.654 64.3651 169.063 64.9857 169.305 65.7771C169.547 66.5642 169.588 67.4616 169.428 68.4693C169.264 69.451 168.935 70.3268 168.442 71.0966C167.953 71.8621 167.357 72.4632 166.652 72.9C165.947 73.3368 165.188 73.5552 164.375 73.5552ZM164.388 72.8222C165.097 72.8222 165.75 72.6233 166.347 72.2254C166.944 71.8275 167.443 71.2891 167.845 70.6101C168.252 69.9311 168.522 69.1721 168.656 68.3331C168.79 67.52 168.771 66.7848 168.598 66.1274C168.425 65.4657 168.116 64.9424 167.67 64.5575C167.225 64.1683 166.66 63.9737 165.977 63.9737C165.272 63.9737 164.619 64.1748 164.018 64.577C163.421 64.9792 162.919 65.5198 162.513 66.1988C162.106 66.8778 161.836 67.6346 161.702 68.4693C161.564 69.278 161.581 70.0132 161.754 70.6749C161.931 71.3323 162.243 71.8556 162.688 72.2448C163.138 72.6297 163.704 72.8222 164.388 72.8222ZM173.171 73.3477L171.848 63.3833H172.659L173.768 72.1865H173.839L177.874 63.3833H178.698L179.808 72.18H179.873L183.908 63.3833H184.751L180.106 73.3477H179.224L178.108 64.6873H178.024L174.054 73.3477H173.171ZM190.706 77.0843C190.507 77.0843 190.315 77.0627 190.129 77.0194C189.947 76.9762 189.783 76.9199 189.636 76.8507L189.98 76.1566C190.351 76.3123 190.704 76.3642 191.037 76.3123C191.374 76.2647 191.69 76.1069 191.984 75.8387C192.282 75.5706 192.564 75.19 192.827 74.697L193.489 73.4515L191.543 63.3833H192.354L194.028 72.3357H194.099L198.75 63.3833H199.639L193.496 75.0408C193.253 75.4949 192.985 75.8733 192.691 76.1761C192.397 76.4788 192.081 76.7059 191.744 76.8572C191.411 77.0086 191.065 77.0843 190.706 77.0843ZM203.818 73.5552C202.988 73.5552 202.285 73.3325 201.71 72.8871C201.139 72.4373 200.733 71.8188 200.49 71.0317C200.248 70.2446 200.211 69.3451 200.38 68.3331C200.544 67.347 200.869 66.4712 201.353 65.7058C201.842 64.9359 202.439 64.3326 203.144 63.8958C203.849 63.4547 204.605 63.2341 205.414 63.2341C206.249 63.2341 206.952 63.4612 207.523 63.9153C208.098 64.3651 208.506 64.9857 208.749 65.7771C208.991 66.5642 209.032 67.4616 208.872 68.4693C208.708 69.451 208.379 70.3268 207.886 71.0966C207.397 71.8621 206.8 72.4632 206.095 72.9C205.39 73.3368 204.631 73.5552 203.818 73.5552ZM203.831 72.8222C204.541 72.8222 205.194 72.6233 205.79 72.2254C206.387 71.8275 206.887 71.2891 207.289 70.6101C207.696 69.9311 207.966 69.1721 208.1 68.3331C208.234 67.52 208.214 66.7848 208.041 66.1274C207.868 65.4657 207.559 64.9424 207.114 64.5575C206.668 64.1683 206.104 63.9737 205.421 63.9737C204.716 63.9737 204.063 64.1748 203.462 64.577C202.865 64.9792 202.363 65.5198 201.957 66.1988C201.55 66.8778 201.28 67.6346 201.146 68.4693C201.007 69.278 201.025 70.0132 201.198 70.6749C201.375 71.3323 201.686 71.8556 202.132 72.2448C202.581 72.6297 203.148 72.8222 203.831 72.8222ZM217.754 69.8121L218.825 63.3833H219.616L217.956 73.3477H217.164L217.437 71.7323H217.365C217.054 72.247 216.608 72.6665 216.029 72.9909C215.449 73.3152 214.805 73.4774 214.096 73.4774C213.443 73.4774 212.889 73.3347 212.435 73.0492C211.981 72.7638 211.654 72.3594 211.455 71.8361C211.261 71.3085 211.224 70.6814 211.345 69.9549L212.441 63.3833H213.233L212.143 69.9224C212.009 70.7528 212.152 71.4253 212.571 71.9399C212.991 72.4503 213.6 72.7054 214.401 72.7054C214.92 72.7054 215.415 72.5887 215.886 72.3551C216.362 72.1216 216.766 71.7886 217.099 71.3561C217.437 70.9193 217.655 70.4046 217.754 69.8121ZM221.235 73.3477L222.896 63.3833H223.667L223.408 64.9403H223.479C223.773 64.4299 224.206 64.0212 224.777 63.7142C225.348 63.4028 225.962 63.2471 226.619 63.2471C226.693 63.2471 226.762 63.2471 226.827 63.2471C226.892 63.2471 226.956 63.2493 227.021 63.2536L226.885 64.0515C226.833 64.0472 226.771 64.0407 226.697 64.0321C226.628 64.0191 226.541 64.0126 226.438 64.0126C225.884 64.0126 225.371 64.1315 224.9 64.3694C224.429 64.6073 224.035 64.9359 223.719 65.3554C223.404 65.7706 223.203 66.2464 223.116 66.7826L222.026 73.3477H221.235ZM232.878 73.3477L235.083 60.0619H235.868L234.96 65.6084H235.038C235.258 65.1803 235.54 64.7867 235.881 64.4278C236.227 64.0688 236.632 63.7812 237.094 63.565C237.557 63.3444 238.072 63.2341 238.638 63.2341C239.438 63.2341 240.1 63.4569 240.623 63.9023C241.147 64.3434 241.508 64.9532 241.707 65.7317C241.91 66.5058 241.927 67.3924 241.759 68.3914C241.594 69.3948 241.283 70.2857 240.824 71.0642C240.37 71.8383 239.808 72.4481 239.138 72.8936C238.472 73.3347 237.737 73.5552 236.932 73.5552C236.361 73.5552 235.881 73.4471 235.492 73.2309C235.107 73.0146 234.8 72.727 234.571 72.3681C234.346 72.0048 234.19 71.6069 234.104 71.1744H234.013L233.65 73.3477H232.878ZM234.486 68.385C234.348 69.2326 234.348 69.9916 234.486 70.662C234.625 71.328 234.9 71.8556 235.31 72.2448C235.721 72.6297 236.266 72.8222 236.945 72.8222C237.624 72.8222 238.243 72.6276 238.8 72.2383C239.358 71.8448 239.825 71.3128 240.202 70.6425C240.578 69.9722 240.835 69.2196 240.974 68.385C241.108 67.5503 241.106 66.7999 240.967 66.1339C240.829 65.4679 240.554 64.9424 240.143 64.5575C239.732 64.1683 239.185 63.9737 238.502 63.9737C237.827 63.9737 237.211 64.1661 236.653 64.551C236.1 64.9316 235.635 65.4549 235.258 66.1209C234.882 66.7826 234.625 67.5373 234.486 68.385ZM250.633 69.8121L251.703 63.3833H252.495L250.834 73.3477H250.043L250.315 71.7323H250.244C249.932 72.247 249.487 72.6665 248.907 72.9909C248.328 73.3152 247.684 73.4774 246.974 73.4774C246.321 73.4774 245.768 73.3347 245.314 73.0492C244.859 72.7638 244.533 72.3594 244.334 71.8361C244.139 71.3085 244.103 70.6814 244.224 69.9549L245.32 63.3833H246.112L245.022 69.9224C244.888 70.7528 245.03 71.4253 245.45 71.9399C245.869 72.4503 246.479 72.7054 247.279 72.7054C247.798 72.7054 248.293 72.5887 248.765 72.3551C249.241 72.1216 249.645 71.7886 249.978 71.3561C250.315 70.9193 250.534 70.4046 250.633 69.8121ZM261.742 65.5306L260.983 65.7122C260.919 65.3446 260.802 65.0311 260.633 64.7716C260.464 64.5078 260.231 64.3067 259.932 64.1683C259.638 64.0256 259.269 63.9542 258.823 63.9542C258.075 63.9542 257.437 64.1402 256.909 64.5121C256.382 64.884 256.07 65.3641 255.975 65.9523C255.897 66.4193 255.988 66.8043 256.248 67.107C256.507 67.4097 256.946 67.6411 257.565 67.8011L259.044 68.1839C259.796 68.3785 260.335 68.6985 260.659 69.144C260.988 69.5894 261.098 70.1343 260.99 70.7787C260.903 71.328 260.676 71.8124 260.309 72.2319C259.945 72.647 259.483 72.9714 258.92 73.2049C258.358 73.4385 257.731 73.5552 257.039 73.5552C256.105 73.5552 255.374 73.3368 254.847 72.9C254.319 72.4589 254.036 71.8297 253.997 71.0123L254.782 70.8566C254.812 71.501 255.024 71.9918 255.417 72.3292C255.811 72.6622 256.371 72.8287 257.098 72.8287C257.924 72.8287 258.622 72.6319 259.193 72.2383C259.764 71.8448 260.099 71.3431 260.198 70.7333C260.272 70.2792 260.188 69.8986 259.945 69.5916C259.703 69.2845 259.297 69.0596 258.726 68.9169L257.214 68.5277C256.427 68.3244 255.863 68.0001 255.521 67.5546C255.184 67.1048 255.069 66.5556 255.177 65.9069C255.268 65.3792 255.484 64.9143 255.826 64.5121C256.172 64.1099 256.609 63.7964 257.136 63.5715C257.664 63.3466 258.246 63.2341 258.882 63.2341C259.734 63.2341 260.393 63.4352 260.86 63.8374C261.327 64.2353 261.621 64.7997 261.742 65.5306ZM263.34 73.3477L265.001 63.3833H265.786L264.125 73.3477H263.34ZM265.766 61.6123C265.58 61.6123 265.424 61.5496 265.299 61.4242C265.178 61.2945 265.126 61.1366 265.143 60.9506C265.152 60.795 265.221 60.6587 265.351 60.542C265.481 60.4252 265.63 60.3668 265.798 60.3668C265.984 60.3668 266.138 60.4317 266.259 60.5614C266.38 60.6868 266.434 60.8404 266.421 61.022C266.408 61.182 266.337 61.3204 266.207 61.4372C266.082 61.554 265.935 61.6123 265.766 61.6123ZM269.302 66.8864L268.231 73.3477H267.44L269.1 63.3833H269.872L269.613 64.9597H269.691C270.002 64.4451 270.443 64.0321 271.014 63.7207C271.585 63.4093 272.225 63.2536 272.934 63.2536C273.6 63.2536 274.165 63.3963 274.628 63.6818C275.09 63.9672 275.421 64.3737 275.62 64.9013C275.819 65.4246 275.858 66.0496 275.737 66.7761L274.641 73.3477H273.849L274.939 66.8086C275.077 65.9609 274.943 65.2798 274.537 64.7651C274.135 64.2461 273.52 63.9867 272.694 63.9867C272.136 63.9867 271.618 64.1077 271.137 64.3499C270.662 64.5921 270.262 64.9316 269.937 65.3684C269.613 65.8009 269.401 66.3069 269.302 66.8864ZM281.789 73.5552C280.89 73.5552 280.144 73.3325 279.551 72.8871C278.959 72.4416 278.546 71.8318 278.312 71.0577C278.079 70.2835 278.044 69.4013 278.208 68.4109C278.373 67.4162 278.702 66.5296 279.195 65.7512C279.688 64.9727 280.291 64.3586 281.004 63.9088C281.718 63.459 282.488 63.2341 283.314 63.2341C283.872 63.2341 284.38 63.3466 284.838 63.5715C285.301 63.7964 285.69 64.1186 286.006 64.5381C286.322 64.9532 286.54 65.4571 286.661 66.0496C286.782 66.6421 286.782 67.3081 286.661 68.0476L286.57 68.5407H278.682L278.805 67.8206H285.896C286.017 67.1027 285.982 66.4539 285.792 65.8744C285.602 65.2906 285.286 64.8278 284.845 64.4862C284.408 64.1445 283.872 63.9737 283.236 63.9737C282.587 63.9737 281.969 64.1618 281.381 64.5381C280.797 64.91 280.295 65.4073 279.876 66.0301C279.461 66.6529 279.184 67.3384 279.045 68.0866L278.967 68.4888C278.829 69.3451 278.846 70.0997 279.019 70.7528C279.197 71.4015 279.525 71.9097 280.005 72.2773C280.485 72.6406 281.113 72.8222 281.887 72.8222C282.427 72.8222 282.907 72.7314 283.327 72.5497C283.751 72.3638 284.11 72.1389 284.404 71.8751C284.702 71.6113 284.936 71.3561 285.104 71.1096L285.76 71.4015C285.561 71.7345 285.275 72.0675 284.903 72.4005C284.531 72.7292 284.084 73.0038 283.56 73.2244C283.037 73.445 282.447 73.5552 281.789 73.5552ZM296.137 65.5306L295.378 65.7122C295.314 65.3446 295.197 65.0311 295.028 64.7716C294.859 64.5078 294.626 64.3067 294.328 64.1683C294.033 64.0256 293.664 63.9542 293.218 63.9542C292.47 63.9542 291.832 64.1402 291.304 64.5121C290.777 64.884 290.465 65.3641 290.37 65.9523C290.292 66.4193 290.383 66.8043 290.643 67.107C290.902 67.4097 291.341 67.6411 291.96 67.8011L293.439 68.1839C294.191 68.3785 294.73 68.6985 295.054 69.144C295.383 69.5894 295.493 70.1343 295.385 70.7787C295.298 71.328 295.071 71.8124 294.704 72.2319C294.34 72.647 293.878 72.9714 293.316 73.2049C292.753 73.4385 292.126 73.5552 291.434 73.5552C290.5 73.5552 289.769 73.3368 289.242 72.9C288.714 72.4589 288.431 71.8297 288.392 71.0123L289.177 70.8566C289.207 71.501 289.419 71.9918 289.812 72.3292C290.206 72.6622 290.766 72.8287 291.493 72.8287C292.319 72.8287 293.017 72.6319 293.588 72.2383C294.159 71.8448 294.494 71.3431 294.593 70.7333C294.667 70.2792 294.583 69.8986 294.34 69.5916C294.098 69.2845 293.692 69.0596 293.121 68.9169L291.609 68.5277C290.822 68.3244 290.258 68.0001 289.916 67.5546C289.579 67.1048 289.464 66.5556 289.572 65.9069C289.663 65.3792 289.879 64.9143 290.221 64.5121C290.567 64.1099 291.004 63.7964 291.532 63.5715C292.059 63.3466 292.641 63.2341 293.277 63.2341C294.129 63.2341 294.788 63.4352 295.255 63.8374C295.722 64.2353 296.016 64.7997 296.137 65.5306ZM305.325 65.5306L304.566 65.7122C304.501 65.3446 304.384 65.0311 304.216 64.7716C304.047 64.5078 303.813 64.3067 303.515 64.1683C303.221 64.0256 302.851 63.9542 302.406 63.9542C301.657 63.9542 301.02 64.1402 300.492 64.5121C299.964 64.884 299.653 65.3641 299.558 65.9523C299.48 66.4193 299.571 66.8043 299.83 67.107C300.09 67.4097 300.529 67.6411 301.147 67.8011L302.626 68.1839C303.379 68.3785 303.917 68.6985 304.242 69.144C304.57 69.5894 304.681 70.1343 304.572 70.7787C304.486 71.328 304.259 71.8124 303.891 72.2319C303.528 72.647 303.065 72.9714 302.503 73.2049C301.941 73.4385 301.314 73.5552 300.622 73.5552C299.688 73.5552 298.957 73.3368 298.429 72.9C297.901 72.4589 297.618 71.8297 297.579 71.0123L298.364 70.8566C298.394 71.501 298.606 71.9918 299 72.3292C299.393 72.6622 299.954 72.8287 300.68 72.8287C301.506 72.8287 302.205 72.6319 302.775 72.2383C303.346 71.8448 303.681 71.3431 303.781 70.7333C303.854 70.2792 303.77 69.8986 303.528 69.5916C303.286 69.2845 302.879 69.0596 302.308 68.9169L300.797 68.5277C300.01 68.3244 299.445 68.0001 299.104 67.5546C298.766 67.1048 298.652 66.5556 298.76 65.9069C298.851 65.3792 299.067 64.9143 299.409 64.5121C299.755 64.1099 300.191 63.7964 300.719 63.5715C301.247 63.3466 301.828 63.2341 302.464 63.2341C303.316 63.2341 303.976 63.4352 304.443 63.8374C304.91 64.2353 305.204 64.7997 305.325 65.5306ZM314.195 73.3477L312.871 63.3833H313.682L314.791 72.1865H314.863L318.898 63.3833H319.722L320.831 72.18H320.896L324.931 63.3833H325.774L321.129 73.3477H320.247L319.131 64.6873H319.047L315.077 73.3477H314.195ZM326.617 73.3477L328.278 63.3833H329.063L327.402 73.3477H326.617ZM329.044 61.6123C328.858 61.6123 328.702 61.5496 328.577 61.4242C328.455 61.2945 328.404 61.1366 328.421 60.9506C328.43 60.795 328.499 60.6587 328.628 60.542C328.758 60.4252 328.907 60.3668 329.076 60.3668C329.262 60.3668 329.416 60.4317 329.537 60.5614C329.658 60.6868 329.712 60.8404 329.699 61.022C329.686 61.182 329.615 61.3204 329.485 61.4372C329.359 61.554 329.212 61.6123 329.044 61.6123ZM335.901 63.3833L335.777 64.0904H331.431L331.548 63.3833H335.901ZM333.41 60.9961H334.194L332.547 70.9928C332.478 71.3993 332.499 71.7323 332.612 71.9918C332.728 72.247 332.904 72.4373 333.137 72.5627C333.375 72.6838 333.645 72.7443 333.948 72.7443C334.082 72.7443 334.203 72.7335 334.311 72.7119C334.419 72.686 334.528 72.6579 334.636 72.6276L334.707 73.3477C334.573 73.3952 334.43 73.4342 334.279 73.4644C334.127 73.4947 333.952 73.5098 333.753 73.5098C333.338 73.5098 332.962 73.4169 332.625 73.2309C332.292 73.0449 332.039 72.7746 331.866 72.42C331.697 72.0654 331.656 71.6372 331.742 71.1355L333.41 60.9961ZM339.251 66.8864L338.181 73.3477H337.389L339.595 60.0619H340.387L339.582 64.9597H339.66C339.971 64.4408 340.41 64.0277 340.977 63.7207C341.543 63.4093 342.188 63.2536 342.91 63.2536C343.58 63.2536 344.147 63.3963 344.61 63.6818C345.072 63.9629 345.403 64.3672 345.602 64.8949C345.801 65.4182 345.84 66.0452 345.719 66.7761L344.623 73.3477H343.838L344.928 66.8086C345.066 65.9566 344.93 65.2733 344.519 64.7586C344.112 64.244 343.496 63.9867 342.67 63.9867C342.108 63.9867 341.584 64.1077 341.1 64.3499C340.62 64.5921 340.216 64.9316 339.887 65.3684C339.563 65.8009 339.351 66.3069 339.251 66.8864ZM360.009 69.8121L361.079 63.3833H361.87L360.21 73.3477H359.418L359.691 71.7323H359.619C359.308 72.247 358.863 72.6665 358.283 72.9909C357.704 73.3152 357.059 73.4774 356.35 73.4774C355.697 73.4774 355.143 73.3347 354.689 73.0492C354.235 72.7638 353.909 72.3594 353.71 71.8361C353.515 71.3085 353.478 70.6814 353.599 69.9549L354.696 63.3833H355.487L354.397 69.9224C354.263 70.7528 354.406 71.4253 354.825 71.9399C355.245 72.4503 355.855 72.7054 356.655 72.7054C357.174 72.7054 357.669 72.5887 358.14 72.3551C358.616 72.1216 359.02 71.7886 359.353 71.3561C359.691 70.9193 359.909 70.4046 360.009 69.8121ZM371.118 65.5306L370.359 65.7122C370.294 65.3446 370.177 65.0311 370.009 64.7716C369.84 64.5078 369.606 64.3067 369.308 64.1683C369.014 64.0256 368.644 63.9542 368.199 63.9542C367.451 63.9542 366.813 64.1402 366.285 64.5121C365.757 64.884 365.446 65.3641 365.351 65.9523C365.273 66.4193 365.364 66.8043 365.623 67.107C365.883 67.4097 366.322 67.6411 366.94 67.8011L368.419 68.1839C369.172 68.3785 369.71 68.6985 370.035 69.144C370.363 69.5894 370.474 70.1343 370.365 70.7787C370.279 71.328 370.052 71.8124 369.684 72.2319C369.321 72.647 368.858 72.9714 368.296 73.2049C367.734 73.4385 367.107 73.5552 366.415 73.5552C365.481 73.5552 364.75 73.3368 364.222 72.9C363.694 72.4589 363.411 71.8297 363.372 71.0123L364.157 70.8566C364.187 71.501 364.399 71.9918 364.793 72.3292C365.186 72.6622 365.747 72.8287 366.473 72.8287C367.299 72.8287 367.998 72.6319 368.568 72.2383C369.139 71.8448 369.475 71.3431 369.574 70.7333C369.647 70.2792 369.563 69.8986 369.321 69.5916C369.079 69.2845 368.672 69.0596 368.101 68.9169L366.59 68.5277C365.803 68.3244 365.238 68.0001 364.897 67.5546C364.559 67.1048 364.445 66.5556 364.553 65.9069C364.644 65.3792 364.86 64.9143 365.202 64.5121C365.548 64.1099 365.984 63.7964 366.512 63.5715C367.04 63.3466 367.621 63.2341 368.257 63.2341C369.109 63.2341 369.769 63.4352 370.236 63.8374C370.703 64.2353 370.997 64.7997 371.118 65.5306Z" fill="black"></path><rect x="143.242" y="52.5859" width="222.116" height="0.453298" fill="url(#paint0_linear_395_1957)"></rect><path fill-rule="evenodd" clip-rule="evenodd" d="M44.4896 68.1489C42.7738 68.4548 41.0091 68.6157 39.2103 68.6157C24.651 68.6157 13.4312 57.1948 13.4312 41.1331C13.4312 25.8338 25.8338 13.4312 41.1331 13.4312C55.0036 13.4312 66.493 23.6252 68.5182 36.9299H82.0542C79.9488 16.1871 62.4313 0 41.1331 0C18.4159 0 0 18.4159 0 41.1331C0 63.8503 16.4931 82.0469 39.2103 82.0469C40.9875 82.0469 42.7501 81.9356 44.4896 81.7194V68.1489Z" fill="#F87530"></path><path fill-rule="evenodd" clip-rule="evenodd" d="M68.519 36.9352C66.496 23.6279 55.0054 13.4312 41.1331 13.4312C38.2165 13.4312 35.4051 13.882 32.7648 14.7176C24.0305 17.2358 10.8252 25.26 0.0424393 43.0185C0.0142477 42.3936 0 41.765 0 41.1331C0 18.4159 18.4159 0 41.1331 0C62.4331 0 79.9518 16.1899 82.0547 36.9352H68.519Z" fill="#F87530"></path><path d="M38.9837 39.6854C40.5383 39.6854 41.8032 40.9365 41.8032 42.4743C41.8032 43.6847 41.015 44.7068 39.9235 45.092L39.9235 58.3398L47.5963 42.4215L46.6528 41.0217C44.8853 38.3989 43.9198 35.3178 43.7518 32.1864L34.2155 32.1864C34.0476 35.3178 33.0821 38.3989 31.3145 41.0218L30.371 42.4218L38.0439 58.3398L38.0439 45.092C36.9523 44.7068 36.1642 43.6847 36.1642 42.4743C36.1642 40.9365 37.4291 39.6854 38.9837 39.6854Z" fill="black"></path><rect width="1.81319" height="1.81319" rx="0.906596" transform="matrix(1 0 0 -1 38.077 63.918)" fill="#F87530"></rect><rect width="2.71979" height="2.71979" rx="1.35989" transform="matrix(1 0 0 -1 37.6237 43.9727)" fill="#F87530"></rect><rect x="68.8336" y="42.8164" width="13.4312" height="39.4542" fill="#F87530"></rect><rect x="108.289" y="12.5938" width="13.4312" height="69.6745" fill="#F87530"></rect><path d="M108.338 82.2734L121.71 82.273L96.0992 44.195L88.8541 54.567L108.338 82.2734Z" fill="#F87530"></path><g filter="url(#filter0_d_395_1957)"><path d="M82.3624 82.2825L68.9305 82.2856L95.7915 43.6652L106.525 59.6098C102.328 59.6098 96.0317 60.0353 92.6743 66.3279L82.3624 82.2825Z" fill="#F87530"></path></g><rect x="30.3709" y="19.4922" width="17.2253" height="9.97256" fill="black"></rect><rect x="54.641" y="50.8203" width="4.63752" height="4.63752" rx="2.31876" transform="rotate(114.179 54.641 50.8203)" fill="#F87530"></rect><rect x="57.4498" y="56.5742" width="4.63752" height="4.63752" rx="2.31876" transform="rotate(114.179 57.4498 56.5742)" fill="#3270F3"></rect><rect x="44.5195" y="60.3984" width="2.47335" height="2.47335" rx="1.23667" transform="rotate(114.179 44.5195 60.3984)" fill="#E9E700"></rect><rect x="51.7725" y="59.9414" width="2.47335" height="2.47335" rx="1.23667" transform="rotate(114.179 51.7725 59.9414)" fill="#F87530"></rect><rect x="49.0527" y="56.7695" width="2.47335" height="2.47335" rx="1.23667" transform="rotate(114.179 49.0527 56.7695)" fill="#E617EB"></rect><rect x="47.8817" y="61.5352" width="1.93042" height="1.93042" rx="0.96521" transform="rotate(114.179 47.8817 61.5352)" fill="#099825"></rect><defs><filter id="filter0_d_395_1957" x="65.5727" y="43.6641" width="44.3103" height="45.3367" filterUnits="userSpaceOnUse" color-interpolation-filters="sRGB"><feGaussianBlur stdDeviation="1.6789"></feGaussianBlur></filter><linearGradient id="paint0_linear_395_1957" x1="143.242" y1="52.8126" x2="365.358" y2="52.8126" gradientUnits="userSpaceOnUse"><stop stop-color="#F87530" stop-opacity="0"></stop><stop offset="0.485" stop-color="#FE6600"></stop><stop offset="1" stop-color="#F87530" stop-opacity="0"></stop></linearGradient></defs></svg>